<?xml version="1.0" encoding="utf-8"?>
<!-- Generator: Adobe Illustrator 16.0.0, SVG Export Plug-In . SVG Version: 6.00 Build 0)  -->
<!DOCTYPE svg PUBLIC "-//W3C//DTD SVG 1.1//EN" "http://www.w3.org/Graphics/SVG/1.1/DTD/svg11.dtd">
<svg version="1.1" xmlns="http://www.w3.org/2000/svg" xmlns:xlink="http://www.w3.org/1999/xlink" x="0px" y="0px"
	 width="394.979px" height="500px" viewBox="52.511 0 394.979 500" enable-background="new 52.511 0 394.979 500"
	 xml:space="preserve">
<g id="Layer_2" display="none">
	<rect x="21.5" y="-39.5" display="inline" fill="#00AAE7" width="449" height="563"/>
</g>
<g id="Layer_1" opacity="0.5">
	<linearGradient id="SVGID_1_" gradientUnits="userSpaceOnUse" x1="130.1733" y1="374.0049" x2="356.4977" y2="147.6805">
		<stop  offset="0" style="stop-color:#FFFFFF;stop-opacity:0.5"/>
		<stop  offset="0.99" style="stop-color:#FFFFFF;stop-opacity:0.1"/>
	</linearGradient>
	<path fill="url(#SVGID_1_)" d="M427.045,295.052c-18.16-28.3-54.44-50.013-105.407-59.992
		c-61.325-12.027-143.097-29.807-169.255-51.423c-23.368-19.292-12.484-58.954,10.113-58.64
		c-20.123,8.247-29.454,59.516,39.509,67.268c27.845,2.381,60.326-11.77,75.811-29.033c46.66-52.015,21.692-132.51-30.063-163.163
		h-109.35C118.14,17.79,115.51,43.94,127.709,47.92c8.456,2.762,15.026-0.514,17.361-8.798c1.904-6.913-1.629-13.409-9.228-14.437
		c5.551-12.645,16.55-19.044,24.833-19.044c-2.475,4.76-2.694,9.112-0.065,14.367c4.056,8.115,13.33,11.199,20.72,6.887
		c6.019-3.514,8.913-10.836,7.619-17.828c9.219,0.572,15.941,2.41,26.024,8.713c-7.616,5.305-10.197,16.19-5.712,25.11
		c4.677,9.334,15.351,12.886,23.854,7.923c4.845-2.936,8.1-7.907,8.855-13.521c7.459,6.949,13.875,14.938,19.048,23.721
		c-8.677-1.971-17.362,3.533-19.876,12.922c-2.667,9.951,2.61,20.483,11.782,23.53c6.828,2.212,14.304-0.308,18.396-6.207
		c0.768,6.145,0.768,12.365,0,18.511c-0.583,4.477-1.462,8.907-2.639,13.265c-4.628-5.713-12.379-7.446-18.665-3.753
		c-7.369,4.305-10.064,14.351-6.009,22.455c1.937,4.015,5.483,7.023,9.762,8.276c-8.122,19.827-41.653,32.09-69.849,18.378
		c37.356,4.638,71.202-67.048,8.571-98.788C117.826,31.751,61.27,107.029,53.918,174.762
		c-12.78,117.785,62.287,192.51,190.958,234.048c140.715,45.412,124.975,72.685,122.301,91.121
		c22.319-13.543,23.805-35.128,7.035-54.746c6.714,7.19,16.559,9.239,20.321,9.99c7.037,1.457,20.646-1.676,31.158-10.923
		c12.17-10.665,18.941-29.653,21.797-49.355v-46.291C444.37,329.555,437.417,311.335,427.045,295.052z M360.767,280.979
		c-0.45-0.664-0.939-1.301-1.465-1.905c-0.889-1.207-1.981-2.247-3.229-3.076c-0.686-0.508-1.403-0.969-2.151-1.381
		c19.894,7.999,35.549,20.751,46.66,38.092c5.632,8.794,10.28,18.185,13.855,27.995c-0.458-0.827-0.951-1.656-1.447-2.466
		c-10.17-15.722-33.91-23.453-52.823-25.168c-8.449-0.688-16.955-0.044-25.206,1.903c-0.652-3.303-0.919-6.671-0.799-10.036
		l0.437-0.22c6.057,5.533,14.962,6.59,21.742,1.982C364.463,301.176,366.442,289.663,360.767,280.979z M275.531,253.171v-0.01
		c19.187,4.926,40.946,10.476,64.314,16.771c1.944,0.503,3.848,1.104,5.753,1.714c-38.797,0.123-35.854,41.204-36.293,48.898
		c-0.836-3.517-1.854-6.987-3.046-10.399c-8.675-25.045-28.17-45.472-55.623-60.25c-4.609-2.483-9.482-4.809-14.616-6.979
		C248.133,246.134,261.255,249.486,275.531,253.171z M86.705,155.097c4.762-20.321,13.835-39.594,28.873-53.164
		c10.998-9.903,27.511-16.56,43.376-14.913c15.864,1.647,28.025,8.389,35.749,17.369c6.665,7.741,6.408,20.064,5.16,28.635
		c0-8.761-4.904-21.559-30.129-29.948c-19.218-5.686-32.426,3.15-42.082,10.236c-22.616,17.14-34.368,81.181,27.265,102.617
		c9.66,4.588,19.595,8.575,29.747,11.939c-3.351-0.638-6.751-1.257-10.227-1.807c-39.233-6.277-75.591-5.524-90.466-4.839
		C80.162,199.73,81.544,177.267,86.705,155.097z M94.762,254.248c19.028-0.467,38.067,0.271,57.003,2.208
		c0,7.772,0.6,20.046,3.742,26.502c6.999,14.37,16.33,22.807,25.52,27.33c-0.908,1.96-1.453,4.065-1.609,6.22
		c-0.8,11.171,7.515,16.873,13.617,19.55c-0.069,8.388,2.573,16.574,7.533,23.341C168.866,341.438,115.825,307.643,94.762,254.248z
		 M190.977,316.44c-0.056-0.863,0.122-1.727,0.515-2.494c2.898,0.605,5.857,0.881,8.817,0.818c-1.969,2.543-3.573,5.352-4.762,8.343
		C192.899,321.913,191.138,319.342,190.977,316.44z M202.206,290.919c-7.01,4.401-21.513-0.522-28.788-10.818
		c-4.406-6.392-6.755-13.976-6.733-21.739c1.409,0.21,2.825,0.425,4.248,0.647c4.334,0.696,8.743,1.522,13.181,2.476
		c-1.63,2.657-2.916,10.371,4.76,15.302C203.766,267.57,207.917,287.328,202.206,290.919z M244.076,348.808
		c-3.981,7.789-13.751,9.522-21.759,3.875c-8.009-5.647-11.296-16.588-7.314-24.376c3.981-7.791,13.75-9.524,21.759-3.878
		C244.77,330.077,248.057,341.018,244.076,348.808z M234.981,302.242c-2.318-0.481-4.678-0.737-7.046-0.762l0.457-0.486
		c6.019-7.361,4.172-16.942,1.334-24.016c19.693,9.837,36.415,23.73,45.262,42.977c6.333,13.76,4.569,27.424-11.313,33.652
		c0.945-2.459,1.615-5.013,2-7.617C268.674,325.991,254.913,306.366,234.981,302.242z M367.501,425.532
		c-0.12,0.833-0.188,1.672-0.202,2.514c-0.128,1.559,0.019,3.128,0.428,4.639c0.335,1.598,0.856,3.151,1.554,4.625
		c0.134,0.314,0.268,0.638,0.409,0.953c0.537,1.207,1.175,2.367,1.906,3.466c-16.638-21.9-68.621-47.975-111.254-59.183
		c24.814-0.828,43.146-12.73,48.984-32.595c1.116-3.844,1.754-7.81,1.903-11.809c0.091,0.195,0.163,0.399,0.21,0.61
		c8.352,36.413,55.231,62.192,77.295,71.418C378.564,408.22,369.099,415.037,367.501,425.532z M393.049,378.509
		c-12.016-5.304-22.981-12.723-32.378-21.902c-6.075-5.855-11.503-12.349-16.187-19.37c6.136-1.421,12.439-1.984,18.729-1.674
		c13.457,0.703,29.358,4.438,38.092,16.834l-0.145,0.374c-5.818-0.068-11.141,4.093-12.712,10.474
		C387.028,368.791,388.8,374.671,393.049,378.509z M405.267,428.235l-0.495-0.169c-0.69-6.396-4.301-12.107-9.779-15.476
		c3.018,1.066,6.151,2.048,9.408,2.857c3.028,0.79,6.056,1.446,9.103,1.979C411.188,421.34,408.425,424.967,405.267,428.235z
		 M420.17,386.593c-3.21-0.45-6.388-1.086-9.523-1.902c-3.174-0.846-6.348-1.831-9.522-2.953c0.497,0.002,0.993-0.034,1.486-0.105
		c1.093-0.109,2.166-0.37,3.188-0.771l0.678-0.229c8.939-3.114,11.606-13.969,12.484-17.54c0.333-1.524,0.474-3.088,0.418-4.647
		v-0.01c0.285,1.53,0.474,3.076,0.562,4.629C420.188,369.835,420.416,378.3,420.17,386.593z"/>
</g>
</svg>
